<?xml version="1.0" encoding="utf-8"?>
<!-- Generator: Adobe Illustrator 27.5.0, SVG Export Plug-In . SVG Version: 6.00 Build 0)  -->
<svg version="1.1" xmlns="http://www.w3.org/2000/svg" xmlns:xlink="http://www.w3.org/1999/xlink" x="0px" y="0px"
	 viewBox="0 0 3710 3710" style="enable-background:new 0 0 3710 3710;" xml:space="preserve">
<g id="Background">
	<g>
		<g>
			<rect style="fill:#FFFFFF;" width="3710" height="3710"/>
		</g>
	</g>
</g>
<g id="Illustration">
	<g>
		<path style="fill:#F4F7FA;" d="M3252.417,1587.037c-78.974-516.92-402.766-1151.993-1042.453-1218.455
			c0,0-485.68-59.074-964.455,30.461c-284.152,53.138-533.312,211.322-690.971,438.67
			c-157.66,227.35-210.323,504.57-146.409,768.865c41.511,171.661,69.561,349.321,61.864,525.711
			c-9.708,222.458-27.99,456.359,70.352,663.809c144.092,303.945,495.665,393.476,802.435,422.032
			c113.046,10.522,226.512,14.764,339.659,23.71c217.058,17.161,460.474-10.61,669.677-67.121
			C3418.259,2886.721,3331.391,2103.956,3252.417,1587.037z"/>
		<g>
			<g>
				<defs>
					<path id="SVGID_1_" d="M1694.508,2682.612l158.098,142.808c0,0,103.018-54.218,115.974-146.45
						c26.434-188.181,189.404-151.895,259.936-146.908c106.368,7.52,203.383-32.242,139.345-145.547
						c-64.037-113.305,156.304-172.134,326.337-135.231c166.389,36.112,326.594-238.826-26.358-350.053
						c-210.782-66.424-330.235,112.77-412.071,188.921c-81.836,76.151-210.923-28.035-260.051,110.918
						c-41.964,118.691-30.493,243.239-136.146,255.463C1753.92,2468.758,1688.486,2530.362,1694.508,2682.612z"/>
				</defs>
				<clipPath id="SVGID_00000103967678816899462210000005114260963577925514_">
					<use xlink:href="#SVGID_1_"  style="overflow:visible;"/>
				</clipPath>
				
					<linearGradient id="SVGID_00000160191007173653470120000002489179472053718444_" gradientUnits="userSpaceOnUse" x1="9134.0117" y1="-2011.092" x2="8709.8848" y2="-805.6767" gradientTransform="matrix(0.7421 0.6703 -0.6703 0.7421 -5320.9321 -2614.937)">
					<stop  offset="0.0036" style="stop-color:#E38DDD"/>
					<stop  offset="1" style="stop-color:#9571F6"/>
				</linearGradient>
				
					<path style="clip-path:url(#SVGID_00000103967678816899462210000005114260963577925514_);fill:url(#SVGID_00000160191007173653470120000002489179472053718444_);" d="
					M1694.508,2682.612l158.098,142.808c0,0,103.018-54.218,115.974-146.45c26.434-188.181,189.404-151.895,259.936-146.908
					c106.368,7.52,190.746-30.687,152.73-139.253c-43.013-122.836,142.919-178.429,312.952-141.526
					c166.389,36.112,326.594-238.826-26.358-350.053c-210.782-66.424-330.235,112.77-412.071,188.921
					c-81.836,76.151-210.923-28.035-260.051,110.918c-41.964,118.691-30.493,243.239-136.146,255.463
					C1753.92,2468.758,1688.486,2530.362,1694.508,2682.612z"/>
				<g style="opacity:0.5;clip-path:url(#SVGID_00000103967678816899462210000005114260963577925514_);">
					<path style="fill:#BEB8F2;" d="M1749.679,2759.093l3.827,2.364c1.464-2.37,148.89-239.124,365.809-429.758
						c199.839-175.627,501.271-346.907,802.419-165.531l2.321-3.853c-134.057-80.741-279.305-99.52-431.712-55.818
						c-121.747,34.91-248.273,109.562-376.066,221.882C1898.876,2519.462,1751.147,2756.719,1749.679,2759.093z"/>
					<path style="fill:#BEB8F2;" d="M2429.445,2127.51l3.687,2.579c85.85-122.631,269.291-241.284,271.133-242.469l-2.43-3.785
						C2699.984,1885.026,2515.798,2004.16,2429.445,2127.51z"/>
					<path style="fill:#BEB8F2;" d="M2531.791,2101.175c175.585,31.487,250.217,159.895,250.949,161.188l3.912-2.217
						c-0.742-1.314-76.33-131.524-254.067-163.399L2531.791,2101.175z"/>
					<path style="fill:#BEB8F2;" d="M1984.291,2464.055c179.457-123.649,428.336,31.079,430.635,32.789l2.912-3.422
						c-2.097-1.892-255.049-157.819-436.099-33.071L1984.291,2464.055z"/>
					<path style="fill:#BEB8F2;" d="M2043.49,2396.446l3.884,2.272c70.25-120.017,23.451-288.534,22.969-290.224l-4.325,1.232
						C2066.494,2111.398,2112.763,2278.106,2043.49,2396.446z"/>
					<path style="fill:#BEB8F2;" d="M1777.524,2724.712c60.137-56.9,191.387-26.409,192.706-26.096l1.044-4.373
						c-5.479-1.309-134.93-31.377-196.84,27.203L1777.524,2724.712z"/>
					<path style="fill:#BEB8F2;" d="M1811.683,2668.177l3.798,2.41c35.077-55.268,10.881-173.988,2.93-213
						c-1.123-5.513-2.093-10.272-2.099-11.154l-4.497-0.034c-0.01,1.244,0.626,4.41,2.189,12.086
						C1821.865,2497.058,1845.788,2614.441,1811.683,2668.177z"/>
				</g>
			</g>
			<g>
				<defs>
					<path id="SVGID_00000019636315273149580080000008233444937972538803_" d="M2138.795,2782.793l-148.299,133.957
						c0,0-96.633-50.857-108.786-137.373c-24.796-176.517-177.665-142.48-243.825-137.803
						c-99.775,7.054-190.777-30.244-130.709-136.526c60.068-106.283-146.616-161.465-306.11-126.85
						c-156.076,33.874-306.352-224.023,24.724-328.356c197.717-62.307,309.766,105.781,386.53,177.211
						c76.764,71.431,197.85-26.298,243.932,104.043c39.363,111.335,28.603,228.162,127.708,239.629
						C2083.066,2582.194,2144.444,2639.98,2138.795,2782.793z"/>
				</defs>
				<clipPath id="SVGID_00000119838508192938513290000001616600067150461349_">
					<use xlink:href="#SVGID_00000019636315273149580080000008233444937972538803_"  style="overflow:visible;"/>
				</clipPath>
				
					<linearGradient id="SVGID_00000013170725868219092480000016515339069370290837_" gradientUnits="userSpaceOnUse" x1="10905.1689" y1="-3420.1421" x2="10507.3301" y2="-2289.4402" gradientTransform="matrix(-0.7421 0.6703 0.6703 0.7421 11481.9561 -2614.937)">
					<stop  offset="0.0036" style="stop-color:#E38DDD"/>
					<stop  offset="1" style="stop-color:#9571F6"/>
				</linearGradient>
				
					<path style="clip-path:url(#SVGID_00000119838508192938513290000001616600067150461349_);fill:url(#SVGID_00000013170725868219092480000016515339069370290837_);" d="
					M2138.795,2782.793l-148.299,133.957c0,0-96.633-50.857-108.786-137.373c-24.796-176.517-177.665-142.48-243.825-137.803
					c-99.775,7.054-178.923-28.785-143.264-130.622c40.347-115.223-134.061-167.369-293.555-132.754
					c-156.076,33.874-306.352-224.023,24.724-328.356c197.717-62.307,309.766,105.781,386.53,177.211
					c76.764,71.431,197.85-26.298,243.932,104.043c39.363,111.335,28.603,228.162,127.708,239.629
					C2083.066,2582.194,2144.444,2639.98,2138.795,2782.793z"/>
				<g style="opacity:0.5;clip-path:url(#SVGID_00000119838508192938513290000001616600067150461349_);">
					<path style="fill:#BEB8F2;" d="M2087.044,2854.533l-3.589,2.218c-1.373-2.223-139.662-224.302-343.136-403.121
						c-187.453-164.741-470.201-325.405-752.684-155.271l-2.177-3.614c125.748-75.737,261.993-93.351,404.954-52.358
						c114.201,32.747,232.885,102.771,352.757,208.13C1947.095,2629.756,2085.667,2852.306,2087.044,2854.533z"/>
					<path style="fill:#BEB8F2;" d="M1449.411,2262.097l-3.458,2.419c-80.529-115.031-252.6-226.329-254.328-227.44l2.279-3.55
						C1195.641,2034.642,1368.41,2146.392,1449.411,2262.097z"/>
					<path style="fill:#BEB8F2;" d="M1353.408,2237.394c-164.702,29.536-234.708,149.985-235.395,151.197l-3.67-2.079
						c0.696-1.233,71.599-123.372,238.32-153.271L1353.408,2237.394z"/>
					<path style="fill:#BEB8F2;" d="M1866.973,2577.783c-168.334-115.985-401.787,29.153-403.944,30.757l-2.732-3.209
						c1.967-1.775,239.24-148.037,409.069-31.021L1866.973,2577.783z"/>
					<path style="fill:#BEB8F2;" d="M1811.443,2514.364l-3.643,2.131c-65.896-112.578-21.997-270.651-21.545-272.235l4.057,1.155
						C1789.865,2246.984,1746.464,2403.359,1811.443,2514.364z"/>
					<path style="fill:#BEB8F2;" d="M2060.925,2822.284c-56.409-53.373-179.524-24.772-180.761-24.479l-0.979-4.102
						c5.139-1.228,126.567-29.432,184.64,25.517L2060.925,2822.284z"/>
					<path style="fill:#BEB8F2;" d="M2028.883,2769.253l-3.563,2.26c-32.902-51.842-10.207-163.203-2.749-199.797
						c1.054-5.172,1.963-9.636,1.969-10.463l4.219-0.032c0.009,1.167-0.587,4.136-2.054,11.337
						C2019.332,2608.74,1996.892,2718.847,2028.883,2769.253z"/>
				</g>
			</g>
			<g>
				
					<linearGradient id="SVGID_00000083066720532253275090000012810559463934092708_" gradientUnits="userSpaceOnUse" x1="-7371.9766" y1="1450.1494" x2="-6713.9512" y2="3179.1672" gradientTransform="matrix(0.9549 -0.2968 0.2968 0.9549 7747.124 -1975.5565)">
					<stop  offset="0" style="stop-color:#FF9085"/>
					<stop  offset="1" style="stop-color:#FB6FBB"/>
				</linearGradient>
				<path style="fill:url(#SVGID_00000083066720532253275090000012810559463934092708_);" d="M1774.24,2773.528
					c-16.483,69.05,26.229,123.042,63.257,157.271c6.619-1.646,10.848-0.905,17.87-1.083c63.385-1.612,90.083-15.805,152.308-27.258
					c13.394-2.465,50.506-21.656,65.166-30.472l27.069-16.871c0,0,18.185-162.376-72.52-182.847
					c-90.704-20.471-92.997-176.878-104.423-259.587c-7.017-50.79-26.495-71.77-32.07-90.018
					c-59.006-193.171-13.988-265.528-71.763-316.556c-63.779-56.332-136.896,15.722-209.515-41.892
					c-82-65.059-43.823-200.615-135.18-244.841c-15.663-7.582-31.962-14.947-55.148-16.047
					c-57.231-2.715-93.103,38.939-141.88,4.218c-98.043-69.792-231.608-69.77-286.115,41.635
					c-53.795,109.951,77.346,268.151,334.65,356.614c175.812,83.774,186.337,119.579,194.634,211.186
					c5.814,64.164-20.933,241.983,83.553,283.658C1708.621,2642.314,1793.084,2694.591,1774.24,2773.528z"/>
				<g>
					<defs>
						<path id="SVGID_00000098899828866243140410000007750547676696302527_" d="M1887.944,2971.042l208.272-109.252
							c0,0,21.88-169.05-68.825-189.521c-90.705-20.471-92.997-176.877-104.424-259.587
							c-31.003-224.413-279.874-139.914-344.197-423.941c-17.108-75.542-22.775-226.498-104.33-269.367
							c-92.914-48.84-134.299,32.823-197.028-11.83c-98.043-69.792-231.608-69.769-286.115,41.635
							c-53.796,109.951,77.346,268.151,334.649,356.615c175.814,83.774,186.337,119.579,194.635,211.186
							c5.812,64.165-20.933,241.984,83.554,283.659c104.486,41.675,188.949,93.953,170.106,172.889
							C1745.568,2893.639,1887.944,2971.042,1887.944,2971.042z"/>
					</defs>
					<clipPath id="SVGID_00000153667833224206269070000001866931393884917126_">
						<use xlink:href="#SVGID_00000098899828866243140410000007750547676696302527_"  style="overflow:visible;"/>
					</clipPath>
					<g style="opacity:0.5;clip-path:url(#SVGID_00000153667833224206269070000001866931393884917126_);">
						<path style="fill:#FCFDFE;" d="M1976.285,2912.896l4.356-1.662c-8.954-24.135-18.306-48.352-27.794-71.98
							c-70.263-174.938-155.575-336.367-253.573-479.807c-83.037-121.54-176.319-231.893-277.257-327.995
							c-81.173-77.285-167.717-145.814-257.226-203.684c-62.925-40.68-126.652-75.715-189.417-104.124
							c-10.937-4.953-22.449-9.42-33.583-13.74c-14.833-5.755-30.172-11.706-44.266-18.856l-2.346,3.89
							c14.288,7.248,29.73,13.24,44.664,19.035c11.079,4.298,22.533,8.743,33.359,13.645
							c62.567,28.32,126.105,63.249,188.851,103.816c89.288,57.726,175.624,126.094,256.611,203.2
							c100.729,95.904,193.826,206.038,276.702,327.343c97.832,143.197,183.007,304.37,253.16,479.038
							C1958.004,2864.609,1967.342,2888.792,1976.285,2912.896z"/>
						<path style="fill:#FCFDFE;" d="M1536.066,2156.646l3.679-2.833c-119.215-143.239-115.399-464.938-115.346-468.17l-4.609,0.182
							C1419.738,1689.072,1415.897,2012.26,1536.066,2156.646z"/>
						<path style="fill:#FCFDFE;" d="M1830.847,2587.173l3.976-2.426c-68.467-107.018-324.1-137.981-326.675-138.282l-0.818,4.348
							C1509.883,2451.112,1763.451,2481.827,1830.847,2587.173z"/>
						<path style="fill:#FCFDFE;" d="M1863.968,2651.392l4.324-1.746c-30.51-76.987-27.818-199.846,7.584-345.941
							c1.78-7.347,1.78-7.347,1.489-8.114l-4.345,1.696l2.172-0.848l-2.293,0.03c-0.06,0.499-0.732,3.272-1.512,6.488
							C1835.785,2449.885,1833.148,2573.628,1863.968,2651.392z"/>
						<path style="fill:#FCFDFE;" d="M1959.273,2869.107l3.688-2.82c-58.334-70.708-202.577-67.74-204.026-67.702l-0.138,4.377
							C1760.226,2802.925,1902.275,2800.02,1959.273,2869.107z"/>
						<path style="fill:#FCFDFE;" d="M1983.176,2911.489c1.178-74.484,24.922-152.309,72.591-237.918l-4.05-1.872
							c-48.032,86.268-71.959,164.765-73.149,239.975L1983.176,2911.489z"/>
						<path style="fill:#FCFDFE;" d="M1214.131,1866.37l3.516-3.016c-71.173-75.869-126.458-172.282-144.624-203.964
							c-4.398-7.669-5.955-10.363-6.675-11.203l-3.638,2.881c0.54,0.648,3.054,5.032,6.236,10.584
							C1087.171,1693.436,1142.633,1790.155,1214.131,1866.37z"/>
						<path style="fill:#FCFDFE;" d="M1350.07,1972.393l2.484-3.817c-86.998-48.087-288.622,5.51-297.163,7.815l1.023,4.207
							C1058.485,1980.04,1264.697,1925.205,1350.07,1972.393z"/>
					</g>
				</g>
			</g>
			<g>
				
					<linearGradient id="SVGID_00000003783232596056271800000005588224931374225597_" gradientUnits="userSpaceOnUse" x1="159.7535" y1="908.5112" x2="820.6749" y2="1996.5581" gradientTransform="matrix(-0.9998 -0.0187 -0.0187 0.9998 2768.3792 716.5081)">
					<stop  offset="0" style="stop-color:#AA80F9"/>
					<stop  offset="0.9964" style="stop-color:#6165D7"/>
				</linearGradient>
				<path style="fill:url(#SVGID_00000003783232596056271800000005588224931374225597_);" d="M2120.18,2706.992
					c-12.95-1.874-67.478,113.544-103.727,27.136c-9.056-21.588-18.49-95.878-114.588-100.98
					c-18.654-0.99-37.309-1.982-55.963-2.973c-15.325-42.213-21.947-84.838,34.973-99.903
					c88.394-23.395,91.053-170.192,67.028-222.57c-29.734-64.828-95.716-217.073,40.303-255.284
					c113.235-31.811,193.542-30.352,201.949-167.901c8.406-137.551,88.204-222.036,220.257-211.49
					c138.965,11.098,253.561-161.789,367.229-101.25c198.058,105.49,17.226,405.716-224.395,489.315
					c-241.619,83.599-103.488,168.277-97.376,281.073c-0.026,10.503-0.876,26.784-5.528,45.811
					c-28.639,117.136-151.763,135.24-241.261,229.99C2087.022,2747.185,2141.997,2710.149,2120.18,2706.992z"/>
				<g>
					<defs>
						<path id="SVGID_00000050629611202930048910000010072160913276357268_" d="M2158.95,2671.059l-302.852-7.654
							c-17.162-40.972-38.804-116.304,24.776-133.132c88.395-23.396,91.054-170.193,67.029-222.571
							c-29.735-64.827-95.716-217.073,40.303-255.284c113.235-31.811,193.541-30.35,201.948-167.9
							c8.407-137.55,88.205-222.036,220.258-211.49c138.965,11.098,253.561-161.79,367.228-101.25
							c198.059,105.489,17.226,405.714-224.394,489.313c-241.62,83.599-103.489,168.277-97.377,281.074
							c8.344,153.993-211.516,117.199-269.834,176.597C2140.316,2565.326,2148.536,2630.853,2158.95,2671.059z"/>
					</defs>
					<clipPath id="SVGID_00000058578595996810515440000015838643830013433235_">
						<use xlink:href="#SVGID_00000050629611202930048910000010072160913276357268_"  style="overflow:visible;"/>
					</clipPath>
					<g style="opacity:0.5;clip-path:url(#SVGID_00000058578595996810515440000015838643830013433235_);">
						<path style="fill:#FCFDFE;" d="M2016.884,2622.422l-6.426-1.36c97.944-442.664,423.375-834.869,849.297-1023.557l2.859,5.628
							C2438.486,1791.027,2114.421,2181.597,2016.884,2622.422z"/>
						<path style="fill:#FCFDFE;" d="M2092.22,2385.727l-6.563-0.137c1.281-178.262-159.148-320.624-160.77-322.041l4.416-4.526
							C1930.946,2060.456,2093.52,2204.655,2092.22,2385.727z"/>
						<path style="fill:#FCFDFE;" d="M2037.257,2541.49l-5.755-3.068c91.915-157.139,439.427-172.317,442.927-172.451l0.369,6.201
							C2471.337,2372.305,2127.424,2387.339,2037.257,2541.49z"/>
						<path style="fill:#FCFDFE;" d="M2328.081,2004.502l-6.006-2.594c61.298-130.254-28.056-334.563-28.965-336.611l6.043-2.329
							C2300.075,1665.04,2390.512,1871.842,2328.081,2004.502z"/>
						<path style="fill:#FCFDFE;" d="M2538.927,1799.587l-3.401-5.359c147.834-82.433,375.515-30.363,377.801-29.823l-1.487,6.023
							C2909.584,1769.893,2684.457,1718.437,2538.927,1799.587z"/>
					</g>
				</g>
			</g>
		</g>
		<g>
			
				<linearGradient id="SVGID_00000086667658800465384880000002820230462150935699_" gradientUnits="userSpaceOnUse" x1="2608.2854" y1="1792.2754" x2="2623.8521" y2="1883.0414">
				<stop  offset="0" style="stop-color:#FFC444"/>
				<stop  offset="0.9964" style="stop-color:#F36F56"/>
			</linearGradient>
			<path style="fill:url(#SVGID_00000086667658800465384880000002820230462150935699_);" d="M2580.917,1828.339
				c5.206-4.179,12.1-11.005,16.052-21.159c4.236-10.883,1.254-15.73,6.567-22.527c6.738-8.621,20.521-12.329,29.976-8.118
				c1.994,0.888,4.42,2.127,5.948,4.708c4.205,7.097-5.128,19.392-12.576,25.937c-5.606,4.927-7.922,4.563-13.863,8.756
				c-5.799,4.092-13.1,11.148-18.971,24.078L2580.917,1828.339z"/>
			
				<linearGradient id="SVGID_00000075141503613236469830000013512026063685595289_" gradientUnits="userSpaceOnUse" x1="2845.7527" y1="1740.9261" x2="2884.6829" y2="1809.8883">
				<stop  offset="0" style="stop-color:#FFC444"/>
				<stop  offset="0.9964" style="stop-color:#F36F56"/>
			</linearGradient>
			<path style="fill:url(#SVGID_00000075141503613236469830000013512026063685595289_);" d="M2892.724,1768.779
				c-6.424-1.817-15.434-5.412-23.036-13.219c-8.147-8.369-7.292-13.993-14.836-18.179c-9.567-5.309-23.705-3.345-30.768,4.222
				c-1.489,1.596-3.24,3.683-3.64,6.656c-1.102,8.175,12.288,15.854,21.7,18.974c7.084,2.349,9.074,1.111,16.18,2.652
				c6.936,1.505,16.412,5.154,26.863,14.768L2892.724,1768.779z"/>
			
				<linearGradient id="SVGID_00000137126981416236088500000006649332836749348029_" gradientUnits="userSpaceOnUse" x1="-1717.6663" y1="2505.3613" x2="-1595.395" y2="3218.2952" gradientTransform="matrix(-0.9612 0.2758 0.2758 0.9612 555.5568 -63.5757)">
				<stop  offset="0" style="stop-color:#FF9085"/>
				<stop  offset="1" style="stop-color:#FB6FBB"/>
			</linearGradient>
			<path style="fill:url(#SVGID_00000137126981416236088500000006649332836749348029_);" d="M2862.926,1778.891
				c-4.141,19.715,17.172,37.255,32.548,54.476c30.842,34.545,63.126,96.184,51.273,149.083
				c-6.474,28.895-27.228,60.14-56.534,74.948c-31.542,15.938-50.437,1.438-83.248,20.365c-2.42,1.396-43.913,25.996-45.118,59.193
				c-1.487,40.954,58.727,84.523,110.269,87.858c94.267,6.099,207.852-119.261,202.559-243.655
				c-5.761-135.422-151.271-242.913-193.133-224.689C2874.952,1759.34,2865.258,1767.796,2862.926,1778.891z"/>
			
				<linearGradient id="SVGID_00000062907723373344026810000000118868676198474411_" gradientUnits="userSpaceOnUse" x1="-2981.2156" y1="3374.9219" x2="-2981.2156" y2="3039.7185" gradientTransform="matrix(-0.9994 0.0352 0.0352 0.9994 -265.165 -10.261)">
				<stop  offset="0" style="stop-color:#FFC444"/>
				<stop  offset="0.9964" style="stop-color:#F36F56"/>
			</linearGradient>
			<polygon style="fill:url(#SVGID_00000062907723373344026810000000118868676198474411_);" points="2820.97,3181.151 
				2817.594,3215.459 2833.573,3212.561 2844.312,3180.327 			"/>
			
				<linearGradient id="SVGID_00000175280173168766963550000014231761443017277369_" gradientUnits="userSpaceOnUse" x1="-3012.5059" y1="2730.8921" x2="-3039.7878" y2="3344.7346" gradientTransform="matrix(-0.9994 0.0352 0.0352 0.9994 -265.165 -10.261)">
				<stop  offset="0" style="stop-color:#311944"/>
				<stop  offset="1" style="stop-color:#893976"/>
			</linearGradient>
			<path style="fill:url(#SVGID_00000175280173168766963550000014231761443017277369_);" d="M2918.338,2547.205
				c-1.661,60.921-9.26,113.06-18.263,155.623c-9.686,45.788-15.327,53.7-18.349,85.362c-6.572,68.898,15.632,78.76,19.709,156.636
				c4.502,85.99-18.363,154.333-27.351,180.403c-7.858,22.792-16.084,41.197-22.271,53.98c-7.885,6.874-19.939,4.234-32.648,1.65
				c-4.683-77.996-10.52-151.396-15.203-229.391c-15.1-117.333-30.2-234.661-45.3-351.992
				C2811.887,2582.05,2865.113,2564.629,2918.338,2547.205z"/>
			
				<linearGradient id="SVGID_00000157285801101432439160000012670114930057144762_" gradientUnits="userSpaceOnUse" x1="-3012.5059" y1="2730.8921" x2="-3039.7878" y2="3344.7344" gradientTransform="matrix(-0.9994 0.0352 0.0352 0.9994 -265.165 -10.261)">
				<stop  offset="0" style="stop-color:#311944"/>
				<stop  offset="1" style="stop-color:#893976"/>
			</linearGradient>
			<path style="opacity:0.3;fill:url(#SVGID_00000157285801101432439160000012670114930057144762_);" d="M2819.165,3180.858
				c-4.683-77.996-10.52-151.396-15.203-229.391c-15.1-117.333-30.2-234.661-45.3-351.992
				c53.225-17.425,106.45-34.845,159.676-52.27c-0.11,4.034-0.313,7.925-0.473,11.885c-74.675,64.849-89.289,116.221-88.56,151.261
				c0.884,42.499,24.124,63.566,19.584,125.185c-3.247,44.058-16.491,51.82-16.486,91.578c0.008,51.195,21.98,79.979,32.682,109.562
				c10.342,28.593,14.023,69.091-5.957,126.691c-2.623,5.948-5.103,11.271-7.315,15.841
				C2843.928,3186.079,2831.874,3183.444,2819.165,3180.858z"/>
			
				<linearGradient id="SVGID_00000163779041250080240170000016477324546752074149_" gradientUnits="userSpaceOnUse" x1="-2953.5046" y1="3376.6521" x2="-3009.5852" y2="3191.7375" gradientTransform="matrix(-0.9994 0.0352 0.0352 0.9994 -265.165 -10.261)">
				<stop  offset="0" style="stop-color:#FF9085"/>
				<stop  offset="1" style="stop-color:#FB6FBB"/>
			</linearGradient>
			<path style="fill:url(#SVGID_00000163779041250080240170000016477324546752074149_);" d="M2826.963,3227.162
				c7.564-9.375,14.51-8.688,15.772-15.047c0.993-4.996-2.184-11.029-6.827-13.248c-6.527-3.116-14.239,2.136-15.981,3.321
				c-11.836,8.061-8.305,20.194-19.51,25.727c-2.255,1.115-5.84,2.322-9.569,5.968c-1.583,1.549-5.504,5.385-4.511,7.948
				c1.147,2.964,8.282,2.708,15.063,2.464c8.139-0.292,12.208-0.435,16.07-2.964
				C2822.825,3237.828,2821.125,3234.396,2826.963,3227.162z"/>
			
				<linearGradient id="SVGID_00000070113592615295504270000009466301604133910682_" gradientUnits="userSpaceOnUse" x1="549.1143" y1="3740.8928" x2="549.1143" y2="3443.803" gradientTransform="matrix(-0.6521 0.7581 0.7581 0.6521 393.3936 112.2658)">
				<stop  offset="0" style="stop-color:#FFC444"/>
				<stop  offset="0.9964" style="stop-color:#F36F56"/>
			</linearGradient>
			<polygon style="fill:url(#SVGID_00000070113592615295504270000009466301604133910682_);" points="2810.9,2933.646 
				2840.782,2945.341 2849.493,2931.635 2826.13,2915.937 			"/>
			
				<linearGradient id="SVGID_00000157994971939437911150000011170448373343677325_" gradientUnits="userSpaceOnUse" x1="569.769" y1="3752.1248" x2="513.6857" y2="3567.2012" gradientTransform="matrix(-0.6521 0.7581 0.7581 0.6521 393.3936 112.2658)">
				<stop  offset="0" style="stop-color:#FF9085"/>
				<stop  offset="1" style="stop-color:#FB6FBB"/>
			</linearGradient>
			<path style="fill:url(#SVGID_00000157994971939437911150000011170448373343677325_);" d="M2856.522,2952.594
				c-1.756-11.916,3.461-16.554-0.355-21.795c-2.997-4.118-9.585-5.877-14.365-3.971c-6.717,2.682-8.091,11.91-8.402,13.993
				c-2.107,14.165,9.202,19.802,5.667,31.787c-0.712,2.413-2.257,5.866-2.107,11.08c0.064,2.213,0.221,7.697,2.778,8.706
				c2.957,1.167,7.608-4.248,12.029-9.396c5.307-6.176,7.963-9.264,8.724-13.816
				C2861.552,2962.871,2857.877,2961.792,2856.522,2952.594z"/>
			
				<linearGradient id="SVGID_00000026842428457958377260000011906850006412044175_" gradientUnits="userSpaceOnUse" x1="3069.9407" y1="2734.6594" x2="2497.7839" y2="2708.6519">
				<stop  offset="0" style="stop-color:#311944"/>
				<stop  offset="1" style="stop-color:#893976"/>
			</linearGradient>
			<path style="fill:url(#SVGID_00000026842428457958377260000011906850006412044175_);" d="M2681.608,2493.046
				c-55.667,113.512-74.57,208.164-81.72,269.969c-4.598,39.742-4.153,64.322,7.296,89.017
				c40.986,88.4,184.022,94.237,205.761,94.854c7.15-14.645,14.3-29.29,21.45-43.935c-13.158-24.407-36.124-58.298-75.444-83.024
				c-30.24-19.016-42.066-14.948-49.616-27.727c-30.293-51.274,133.232-162.324,108.803-236.251
				C2809.687,2530.377,2777.158,2504.444,2681.608,2493.046z"/>
			
				<linearGradient id="SVGID_00000057843080371238171420000010804094481810439604_" gradientUnits="userSpaceOnUse" x1="2842.6023" y1="1835.4154" x2="2984.8835" y2="2665.022">
				<stop  offset="0" style="stop-color:#FF9085"/>
				<stop  offset="1" style="stop-color:#FB6FBB"/>
			</linearGradient>
			<path style="fill:url(#SVGID_00000057843080371238171420000010804094481810439604_);" d="M2802.239,2084.997
				c-60.155,10.331-105.952,21.085-126.4,52.59c-21.596,33.279,12.74,58.329,22.077,131.341
				c14.296,111.781-49.973,153.539-31.481,266.092c3.017,18.367,7.598,34.719,12.528,48.679
				c8.67,24.548,25.489,45.209,47.529,59.066c16.527,10.391,36.619,20.845,60.197,29.094c60.997,21.337,91.086,8.933,173.154,13.622
				c134.236,7.67,154.334,46.603,214.979,22.662c61.293-24.197,105.655-89.577,92.656-117.516
				c-7.786-16.73-32.345-6.284-67.568-26.825c-45.393-26.473-37.769-62.606-74.599-93.602
				c-52.902-44.521-103.791,0.44-149.038-38.273c-45.77-39.163-51.233-134.398-31.779-191.092
				c12.707-37.031,12.944-77.301,22.374-115.297c0.785-3.157,1.401-8.192-0.561-13.902c-7.502-21.838-47.462-26.03-77.668-28.916
				C2842.572,2078.32,2807.185,2084.146,2802.239,2084.997z"/>
			
				<linearGradient id="SVGID_00000099631353205359417140000008284086389729565833_" gradientUnits="userSpaceOnUse" x1="5418.7612" y1="2992.2622" x2="5695.7896" y2="3561.9265" gradientTransform="matrix(0.9781 -0.2085 0.2085 0.9781 -3305.7224 366.1276)">
				<stop  offset="0" style="stop-color:#FF9085"/>
				<stop  offset="1" style="stop-color:#FB6FBB"/>
			</linearGradient>
			<path style="opacity:0.3;fill:url(#SVGID_00000099631353205359417140000008284086389729565833_);" d="M3167.78,2665.752
				c-18.585-12.384-8.52-47.494-36.046-66.133c-25.548-17.299-45.474,5.325-83.126-6.217c-48.292-14.806-45.767-61.3-92.046-76.14
				c-33.28-10.67-43.319,10.572-91.321,11.49c-47.919,0.918-110.738-18.858-150.517-69.656
				c-16.902-21.584-26.347-44.611-31.486-65.899c-12.814,41.395-26.728,81.413-16.803,141.823
				c4.016,24.449,10.803,45.326,17.497,61.746c6.245,15.318,16.783,28.476,30.361,37.925c18.486,12.864,42.669,26.768,72.396,37.167
				c60.996,21.338,91.086,8.934,173.154,13.624c134.236,7.67,154.334,46.603,214.979,22.662
				c39.173-15.464,71.342-47.73,86.129-76.313C3207.898,2670.422,3181.268,2674.741,3167.78,2665.752z"/>
			
				<linearGradient id="SVGID_00000114071329132759867770000009927200554598572455_" gradientUnits="userSpaceOnUse" x1="-2951.1157" y1="2144.574" x2="-3014.4065" y2="2246.9561" gradientTransform="matrix(-0.9994 0.0352 0.0352 0.9994 -265.165 -10.261)">
				<stop  offset="0" style="stop-color:#FFC444"/>
				<stop  offset="0.9964" style="stop-color:#F36F56"/>
			</linearGradient>
			<path style="fill:url(#SVGID_00000114071329132759867770000009927200554598572455_);" d="M2772.609,1985.797
				c0,0-16.399,30.784-17.433,52.385c-1.035,21.6,23.343,20.031,23.343,20.031l-0.915,13.626
				c-0.781,11.633-8.332,21.717-19.274,25.74l-9.625,3.539c0,0,62.786,13.442,97.072-10.78l-9.88-0.968
				c-13.99-1.369-25.077-12.41-26.504-26.395l-0.595-5.832C2808.797,2057.145,2819.688,1989.812,2772.609,1985.797z"/>
			
				<linearGradient id="SVGID_00000127005006178496367750000016428282233019265713_" gradientUnits="userSpaceOnUse" x1="2603.269" y1="1932.4795" x2="2725.5386" y2="2645.4028">
				<stop  offset="0" style="stop-color:#FF9085"/>
				<stop  offset="1" style="stop-color:#FB6FBB"/>
			</linearGradient>
			<path style="fill:url(#SVGID_00000127005006178496367750000016428282233019265713_);" d="M2611.197,1834.541
				c9.418,17.808-6.232,40.545-16.262,61.34c-20.119,41.71-34.151,109.863-8.168,157.442c14.192,25.989,42.758,50.299,75.011,56.45
				c34.715,6.621,48.878-12.528,85.635-3.384c2.711,0.674,49.379,12.876,59.693,44.453c12.724,38.957-33.137,97.442-81.761,114.862
				c-88.929,31.861-232.682-57.312-261.902-178.341c-31.811-131.759,78.41-275.212,123.675-269.239
				C2594.246,1819.064,2605.897,1824.518,2611.197,1834.541z"/>
			
				<linearGradient id="SVGID_00000139259252080943286770000010595176913821404040_" gradientUnits="userSpaceOnUse" x1="-3302.6299" y1="2573.4026" x2="-3046.7595" y2="2026.6715" gradientTransform="matrix(-0.9994 0.0352 0.0352 0.9994 -265.165 -10.261)">
				<stop  offset="0" style="stop-color:#444B8C"/>
				<stop  offset="0.9964" style="stop-color:#26264F"/>
			</linearGradient>
			<path style="fill:url(#SVGID_00000139259252080943286770000010595176913821404040_);" d="M2782.419,2016.409
				c3.245-0.268,5.926-4.385,8.148-3.161c2.333,1.28,2.073,7.28,0.047,11.492c-1.663,3.451-4.375,5.402-5.884,6.313
				c2.506,3.467,5.698,8.858,7.027,15.914c2.941,15.606-5.355,28.157-8.803,35.501c-15.55,33.109,8.641,85.454,35.193,111.888
				c21.579,21.487,31.646,12.847,44.529,30.396c25.076,34.156-9.534,71.7,3.434,117.672
				c19.719,69.903,130.098,90.698,134.674,91.504c1.802,0.318,3.013,0.518,4.89,0.815c49.515,7.866,124.564,19.789,177.417-20.853
				c39.545-30.405,57.68-83.328,54.685-129.942c-0.787-12.261-4.502-58.805-42.427-96.793c-6.021-6.029-41.665-41.65-89.833-42.081
				c-25.512-0.229-30.656,8.76-50.167,3.202c-26.711-7.61-43.165-31.895-53.373-46.958c-18.775-27.71-11.145-33.627-24.652-47.256
				c-26.468-26.7-57.52-5.733-85.79-29.297c-27.867-23.227-11.056-54.737-37.954-74.842c-27.75-20.734-80.83-13.495-92.145,11.198
				C2751.71,1982.339,2772.471,2017.231,2782.419,2016.409z"/>
			
				<linearGradient id="SVGID_00000146467698692300498480000004808202930460178580_" gradientUnits="userSpaceOnUse" x1="3875.3103" y1="1003.2578" x2="3914.24" y2="1072.219" gradientTransform="matrix(0.9517 0.3071 -0.3071 0.9517 -538.7822 -403.6187)">
				<stop  offset="0" style="stop-color:#FFC444"/>
				<stop  offset="0.9964" style="stop-color:#F36F56"/>
			</linearGradient>
			<path style="fill:url(#SVGID_00000146467698692300498480000004808202930460178580_);" d="M2853.368,1747.309
				c0,0-11.178,3.016-17.004-5.487c-5.827-8.504-8.151,5.941-0.479,11.143c7.671,5.203,15.294,6.933,15.294,6.933L2853.368,1747.309
				z"/>
		</g>
		<g>
			
				<linearGradient id="SVGID_00000089559848393289916210000016436406847944646789_" gradientUnits="userSpaceOnUse" x1="1684.2721" y1="3080.6479" x2="2065.166" y2="2533.8198">
				<stop  offset="0" style="stop-color:#FFDB44"/>
				<stop  offset="1" style="stop-color:#FEEF06"/>
			</linearGradient>
			<path style="fill:url(#SVGID_00000089559848393289916210000016436406847944646789_);" d="M2344.744,2728.606
				c-4.212-5.23-122.747-2.792-274.162,2.526c-58.057-4.907-122.456-6.602-190.436-4.336
				c-78.179,2.606-152.01,10.135-217.138,21.238c-143.538,6.555-252.658,12.007-252.658,12.007s-16.426,110.243,6.663,130.344
				c0.02,0.016,0.074,0.03,0.101,0.049c42.805,55.717,235.143,91.709,464.24,83.067c252.149-9.512,455.433-69.647,463.757-135.499
				c0.189-0.017,0.424-0.035,0.424-0.035S2356.549,2743.256,2344.744,2728.606z"/>
			
				<linearGradient id="SVGID_00000111180330295619456490000011503113463934193590_" gradientUnits="userSpaceOnUse" x1="1707.5121" y1="3002.905" x2="2050.2061" y2="2510.9185">
				<stop  offset="0" style="stop-color:#FCB148"/>
				<stop  offset="0.0521" style="stop-color:#FDBA46"/>
				<stop  offset="0.1424" style="stop-color:#FFC244"/>
				<stop  offset="0.3183" style="stop-color:#FFC444"/>
				<stop  offset="0.4849" style="stop-color:#FDB946"/>
				<stop  offset="0.7754" style="stop-color:#F99C4D"/>
				<stop  offset="0.8658" style="stop-color:#F8924F"/>
				<stop  offset="1" style="stop-color:#F8924F"/>
			</linearGradient>
			<path style="fill:url(#SVGID_00000111180330295619456490000011503113463934193590_);" d="M2349.826,2740.867
				c0.49,67.51-207.351,129.781-466.38,139.122c-261.44,9.427-475.312-38.563-475.485-107.226
				c-0.172-68.616,213.155-130.966,474.275-139.236C2140.951,2625.333,2349.336,2673.403,2349.826,2740.867z"/>
			
				<linearGradient id="SVGID_00000055704755602641892120000013107415340256745861_" gradientUnits="userSpaceOnUse" x1="1712.5924" y1="2933.5273" x2="2033.8134" y2="2472.3684">
				<stop  offset="0" style="stop-color:#FFDB44"/>
				<stop  offset="1" style="stop-color:#FEEF06"/>
			</linearGradient>
			<path style="fill:url(#SVGID_00000055704755602641892120000013107415340256745861_);" d="M2268.918,2636.173
				c-3.554-4.512-103.566-2.65-231.223,1.623c-48.919-4.338-103.163-5.925-160.401-4.112c-65.8,2.084-127.912,8.407-182.68,17.819
				c-120.638,5.337-212.283,9.794-212.283,9.794s-13.75,94.632,5.641,111.947c0.017,0.013,0.062,0.026,0.085,0.042
				c35.961,47.948,197.568,79.356,390.273,72.525c212.384-7.529,383.839-58.77,390.877-115.443c0.159-0.014,0.358-0.029,0.358-0.029
				S2278.878,2648.812,2268.918,2636.173z"/>
			
				<linearGradient id="SVGID_00000126285173730782173540000006159747135811803019_" gradientUnits="userSpaceOnUse" x1="1733.2606" y1="2867.2134" x2="2022.6095" y2="2451.8115">
				<stop  offset="0" style="stop-color:#FCB148"/>
				<stop  offset="0.0521" style="stop-color:#FDBA46"/>
				<stop  offset="0.1424" style="stop-color:#FFC244"/>
				<stop  offset="0.3183" style="stop-color:#FFC444"/>
				<stop  offset="0.4849" style="stop-color:#FDB946"/>
				<stop  offset="0.7754" style="stop-color:#F99C4D"/>
				<stop  offset="0.8658" style="stop-color:#F8924F"/>
				<stop  offset="1" style="stop-color:#F8924F"/>
			</linearGradient>
			<path style="fill:url(#SVGID_00000126285173730782173540000006159747135811803019_);" d="M2275.584,2646.665
				c0.4,58.128-175.44,111.269-394.29,118.714c-220.568,7.504-400.787-34.196-400.957-93.161
				c-0.17-58.93,179.582-112.117,399.918-118.781C2098.876,2546.824,2275.183,2588.571,2275.584,2646.665z"/>
			
				<linearGradient id="SVGID_00000113335779189719754400000013096819026129757327_" gradientUnits="userSpaceOnUse" x1="1736.2513" y1="2693.5581" x2="2056.0056" y2="2234.5049">
				<stop  offset="0" style="stop-color:#FCB148"/>
				<stop  offset="0.0521" style="stop-color:#FDBA46"/>
				<stop  offset="0.1424" style="stop-color:#FFC244"/>
				<stop  offset="0.3183" style="stop-color:#FFC444"/>
				<stop  offset="0.4849" style="stop-color:#FDB946"/>
				<stop  offset="0.7754" style="stop-color:#F99C4D"/>
				<stop  offset="0.8658" style="stop-color:#F8924F"/>
				<stop  offset="1" style="stop-color:#F8924F"/>
			</linearGradient>
			<path style="fill:url(#SVGID_00000113335779189719754400000013096819026129757327_);" d="M2111.535,2615.542
				c0.136,22.469-101.954,43.957-228.551,48.034c-39.383,1.268-76.459,0.684-108.906-1.372
				c-72.537-4.565-121.922-16.56-121.981-32.199c-0.02-5.463,6.063-9.272,17.077-14.385c84.525-64.66,80.189-404.299,80.189-404.299
				l264.217-6.368c0,0-1.394,366.081,93.281,403.097c0,0-0.406-0.674-0.979-0.428
				C2109.562,2610.36,2111.517,2612.519,2111.535,2615.542z"/>
			
				<linearGradient id="SVGID_00000066489361019465290220000007209216744827926680_" gradientUnits="userSpaceOnUse" x1="1878.0746" y1="2598.2197" x2="1654.5721" y2="2277.3499">
				<stop  offset="0" style="stop-color:#FCB148"/>
				<stop  offset="0.0521" style="stop-color:#FDBA46"/>
				<stop  offset="0.1424" style="stop-color:#FFC244"/>
				<stop  offset="0.3183" style="stop-color:#FFC444"/>
				<stop  offset="0.4849" style="stop-color:#FDB946"/>
				<stop  offset="0.7754" style="stop-color:#F99C4D"/>
				<stop  offset="0.8658" style="stop-color:#F8924F"/>
				<stop  offset="1" style="stop-color:#F8924F"/>
			</linearGradient>
			<path style="opacity:0.3;fill:url(#SVGID_00000066489361019465290220000007209216744827926680_);" d="M1774.078,2662.205
				c-72.537-4.565-121.922-16.56-121.981-32.199c-0.02-5.463,6.063-9.272,17.077-14.385c84.525-64.66,80.189-404.299,80.189-404.299
				l55.392-1.335c37.18,3.638,73.796,18.862,79.772,41.989C1884.529,2251.976,1907.867,2640.445,1774.078,2662.205z"/>
			<g>
				
					<linearGradient id="SVGID_00000039094810902977459310000017313036889304671104_" gradientUnits="userSpaceOnUse" x1="6872.0894" y1="1789.2739" x2="6333.4849" y2="1016.03" gradientTransform="matrix(-1 0 0 1 8990.7236 0)">
					<stop  offset="0" style="stop-color:#FCB148"/>
					<stop  offset="0.0521" style="stop-color:#FDBA46"/>
					<stop  offset="0.1424" style="stop-color:#FFC244"/>
					<stop  offset="0.3183" style="stop-color:#FFC444"/>
					<stop  offset="0.4849" style="stop-color:#FDB946"/>
					<stop  offset="0.7754" style="stop-color:#F99C4D"/>
					<stop  offset="0.8658" style="stop-color:#F8924F"/>
					<stop  offset="1" style="stop-color:#F8924F"/>
				</linearGradient>
				<path style="fill:url(#SVGID_00000039094810902977459310000017313036889304671104_);" d="M2248.823,1866.748l32.533-0.59
					c137.57-2.496,259.485-91.367,303.823-221.822l164.143-483.711c9.643-28.38,5.058-58.584-12.597-83.135
					c-17.135-23.83-44.741-37.358-75.759-37.254c-0.722,0.002-1.438,0.062-2.159,0.092l-383.841,16.235
					c-31.107,1.31-55.201,27.45-53.782,58.369c1.42,30.921,27.773,54.985,58.941,53.512l354.522-15.693l-155.475,456.399
					c-29.129,85.381-108.87,143.554-198.595,145.001l-32.516,0.525c-31.281,0.505-56.506,25.808-56.304,56.992
					C2191.962,1842.861,2217.525,1867.316,2248.823,1866.748z"/>
			</g>
			
				<linearGradient id="SVGID_00000046305054283022528360000017718903766988896672_" gradientUnits="userSpaceOnUse" x1="3260.3911" y1="3277.8" x2="1288.235" y2="446.4857">
				<stop  offset="0" style="stop-color:#FCB148"/>
				<stop  offset="0.0521" style="stop-color:#FDBA46"/>
				<stop  offset="0.1424" style="stop-color:#FFC244"/>
				<stop  offset="0.3183" style="stop-color:#FFC444"/>
				<stop  offset="0.4849" style="stop-color:#FDB946"/>
				<stop  offset="0.7754" style="stop-color:#F99C4D"/>
				<stop  offset="0.8658" style="stop-color:#F8924F"/>
				<stop  offset="1" style="stop-color:#F8924F"/>
			</linearGradient>
			<path style="fill:url(#SVGID_00000046305054283022528360000017718903766988896672_);" d="M2471.142,907.99
				c0,0-0.005,13.797-0.591,38.359c-0.037,2.951-0.121,6.121-0.209,9.407c-5.26,197.704-46.336,958.608-364.831,1211.911
				c-23.052,18.376-43.961,34.096-70.01,46.723c-42.073,20.435-92.575,32.948-135.25,35.667v0.228
				c-10.669,0.181-6.936,0.123-8.89,0.113c-1.954,0.107-5.335,0.204-8.892,0.342v-0.228
				c-526.332-2.635-596.988-1051.236-606.023-1292.016c-0.804-21.733-2.748-36.916-2.875-44.195
				c-0.069-3.244-0.885-5.149-0.885-5.149l596.979-1.738l16.967-0.015L2471.142,907.99z"/>
			
				<linearGradient id="SVGID_00000065035239064143191230000017012260661906897792_" gradientUnits="userSpaceOnUse" x1="2004.1846" y1="2236.2153" x2="1135.6323" y2="989.2836">
				<stop  offset="0" style="stop-color:#FCB148"/>
				<stop  offset="0.0521" style="stop-color:#FDBA46"/>
				<stop  offset="0.1424" style="stop-color:#FFC244"/>
				<stop  offset="0.3183" style="stop-color:#FFC444"/>
				<stop  offset="0.4849" style="stop-color:#FDB946"/>
				<stop  offset="0.7754" style="stop-color:#F99C4D"/>
				<stop  offset="0.8658" style="stop-color:#F8924F"/>
				<stop  offset="1" style="stop-color:#F8924F"/>
			</linearGradient>
			<path style="opacity:0.4;fill:url(#SVGID_00000065035239064143191230000017012260661906897792_);" d="M2035.501,2214.402
				c-42.073,20.435-92.575,32.936-135.25,35.655v0.228c-10.669,0.181-6.936,0.123-8.89,0.113c-1.954,0.107-5.335,0.204-8.892,0.342
				v-0.228c-526.332-2.635-596.988-1051.236-606.023-1292.016c-3.975-1.018-9.455-2.025-13.135-3.044
				c-1.808-0.508-4.669-1.07-6.826-1.694c-2.857-29.077-4.751-45.346-4.751-45.346l20.415,5.897l177.281,50.63
				c0,0,0.315,7.374,1.168,20.878c8.628,140.552,68.398,948.086,261.673,1014.686
				C1892.06,2062.407,1872.606,2215.905,2035.501,2214.402z"/>
			
				<linearGradient id="SVGID_00000175286423579215230390000006517317981069611424_" gradientUnits="userSpaceOnUse" x1="1550.4199" y1="1862.0375" x2="998.3092" y2="1069.403">
				<stop  offset="0" style="stop-color:#FCB148"/>
				<stop  offset="0.0521" style="stop-color:#FDBA46"/>
				<stop  offset="0.1424" style="stop-color:#FFC244"/>
				<stop  offset="0.3183" style="stop-color:#FFC444"/>
				<stop  offset="0.4849" style="stop-color:#FDB946"/>
				<stop  offset="0.7754" style="stop-color:#F99C4D"/>
				<stop  offset="0.8658" style="stop-color:#F8924F"/>
				<stop  offset="1" style="stop-color:#F8924F"/>
			</linearGradient>
			<path style="fill:url(#SVGID_00000175286423579215230390000006517317981069611424_);" d="M1445.822,1808.536l-33.503,0.565
				c-92.86,1.566-176.456-55.61-207.747-142.039l-168.165-465.534l332.202,10.493c0,0,87.354-39.109,7.112-113.696l-366.033-12.337
				c-0.766-0.025-1.525-0.043-2.291-0.04c-32.941,0.134-62.185,14.399-80.213,39.16c-18.598,25.542-23.193,56.986-12.611,86.209
				l178.987,494.959c47.973,132.432,176.424,219.323,319.05,216.632l33.522-0.633c32.175-0.607,58.159-26.333,58.064-57.926
				C1504.099,1832.767,1477.978,1807.994,1445.822,1808.536z"/>
			<g style="opacity:0.4;">
				<path style="fill:#FFFFFF;" d="M2470.552,946.449c-0.037,2.951-0.121,6.071-0.21,9.356
					c-5.26,197.704-46.336,958.583-364.831,1211.886c283.541-256.582,276.256-1243.63,276.256-1243.63L2470.552,946.449z"/>
			</g>
			<g>
				
					<linearGradient id="SVGID_00000003078490529538744410000001558724644245044609_" gradientUnits="userSpaceOnUse" x1="1871.5854" y1="779.766" x2="1747.6891" y2="3956.0308">
					<stop  offset="0" style="stop-color:#FFDB44"/>
					<stop  offset="1" style="stop-color:#FEEF06"/>
				</linearGradient>
				<path style="fill:url(#SVGID_00000003078490529538744410000001558724644245044609_);" d="M2568.606,870.089
					c0.484,57.349-64.582,76.082-89.165,83.195c-2.958,0.84-5.971,1.68-9.1,2.521c-33.727,8.926-78.897,16.881-134.717,23.703
					c-121.968,14.997-284.535,23.548-458.221,24.011c-157.119,0.418-306.881-5.809-426.856-17.703
					c-13.41-1.332-26.474-2.721-39.136-4.226c-56.763-6.577-103.201-14.329-138.214-23.078c-3.975-1.018-7.83-2.034-11.509-3.052
					c-1.808-0.508-3.856-1.074-6.013-1.698c-28.999-8.374-88.124-28.628-88.196-83.265c-0.077-58.707,68.24-77.757,93.904-84.89
					c36.069-10.006,86.338-18.841,149.461-26.221c125.405-14.658,290.772-22.452,465.249-22.09
					c173.456,0.36,335.916,8.738,457.947,23.63c61.02,7.449,109.449,16.255,144.074,26.144
					C2502.791,794.104,2568.123,812.827,2568.606,870.089z"/>
				
					<linearGradient id="SVGID_00000018224057375924254910000016070707689731070113_" gradientUnits="userSpaceOnUse" x1="2870.8083" y1="2280.0676" x2="1904.3894" y2="892.6341">
					<stop  offset="0" style="stop-color:#FCB148"/>
					<stop  offset="0.0521" style="stop-color:#FDBA46"/>
					<stop  offset="0.1424" style="stop-color:#FFC244"/>
					<stop  offset="0.3183" style="stop-color:#FFC444"/>
					<stop  offset="0.482" style="stop-color:#FEB946"/>
					<stop  offset="0.603" style="stop-color:#FCAE49"/>
					<stop  offset="0.8658" style="stop-color:#F8924F"/>
					<stop  offset="1" style="stop-color:#F8924F"/>
				</linearGradient>
				<path style="fill:url(#SVGID_00000018224057375924254910000016070707689731070113_);" d="M2512.618,842.321
					c0.217,26.614-282.628,48.381-635.75,48.614c-357.617,0.235-650.916-21.652-650.96-48.883
					c-0.044-27.223,293.039-48.971,650.48-48.586C2229.339,793.846,2512.401,815.714,2512.618,842.321z"/>
				
					<linearGradient id="SVGID_00000155140018855529807160000007802816404913427101_" gradientUnits="userSpaceOnUse" x1="2870.8083" y1="2280.0676" x2="1904.3894" y2="892.6341">
					<stop  offset="0" style="stop-color:#FCB148"/>
					<stop  offset="0.0521" style="stop-color:#FDBA46"/>
					<stop  offset="0.1424" style="stop-color:#FFC244"/>
					<stop  offset="0.3183" style="stop-color:#FFC444"/>
					<stop  offset="0.4849" style="stop-color:#FDB946"/>
					<stop  offset="0.7754" style="stop-color:#F99C4D"/>
					<stop  offset="0.8658" style="stop-color:#F8924F"/>
					<stop  offset="1" style="stop-color:#F8924F"/>
				</linearGradient>
				<path style="opacity:0.3;fill:url(#SVGID_00000155140018855529807160000007802816404913427101_);" d="M2512.618,842.321
					c0.217,26.614-282.628,48.381-635.75,48.614c-357.617,0.235-650.916-21.652-650.96-48.883
					c-0.044-27.223,293.039-48.971,650.48-48.586C2229.339,793.846,2512.401,815.714,2512.618,842.321z"/>
			</g>
		</g>
		<g>
			<g>
				
					<linearGradient id="SVGID_00000123408861163919913670000007912944974366550189_" gradientUnits="userSpaceOnUse" x1="279.801" y1="1889.7563" x2="1623.7925" y2="1938.4518">
					<stop  offset="0" style="stop-color:#311944"/>
					<stop  offset="1" style="stop-color:#893976"/>
				</linearGradient>
				<path style="fill:url(#SVGID_00000123408861163919913670000007912944974366550189_);" d="M1162.043,1922.775l-17.32-7.293
					c0,0-19.827-22.561-24.156-12.306c-4.33,10.255-14.813,37.374,1.367,36.918c16.18-0.456,32.361-7.976,36.918-4.558
					L1162.043,1922.775z"/>
				
					<linearGradient id="SVGID_00000181073627986630704680000000961042012780136578_" gradientUnits="userSpaceOnUse" x1="801.5269" y1="1868.5676" x2="875.3636" y2="1707.2206">
					<stop  offset="0" style="stop-color:#311944"/>
					<stop  offset="1" style="stop-color:#893976"/>
				</linearGradient>
				<path style="fill:url(#SVGID_00000181073627986630704680000000961042012780136578_);" d="M877.303,1650.253l19.87-17.557
					c3.849-3.402,5.958-8.336,5.767-13.469c-0.278-7.476,0.154-18.421,4.359-24.165c6.775-9.254,32.234-1.719,33.378,0
					c5.008,7.519,6.796,20.5-8.291,25.299c-15.087,4.799-18.958,12.756-18.958,12.756l-23.869,33.718L877.303,1650.253z"/>
				
					<linearGradient id="SVGID_00000090977434839694690690000003486268146866190976_" gradientUnits="userSpaceOnUse" x1="4671.9487" y1="3189.6006" x2="4710.4053" y2="3223.8079" gradientTransform="matrix(-1 0 0 1 5654.2349 0)">
					<stop  offset="0" style="stop-color:#AA80F9"/>
					<stop  offset="0.9964" style="stop-color:#6165D7"/>
				</linearGradient>
				<path style="fill:url(#SVGID_00000090977434839694690690000003486268146866190976_);" d="M974.016,3208.342
					c-1.927-5.815-21.968-8.494-30.383,0.851c-4.177,4.639-6.305,13.148-3.048,16.394c1.184,1.183-2.572,4.085,1.349,3.578
					C954.94,3227.48,975.931,3214.121,974.016,3208.342z"/>
				
					<linearGradient id="SVGID_00000095319031127911458000000016194639338221004991_" gradientUnits="userSpaceOnUse" x1="3783.6824" y1="3223.876" x2="3783.6824" y2="3156.8813" gradientTransform="matrix(-1 0 0 1 4728.9243 0)">
					<stop  offset="0" style="stop-color:#311944"/>
					<stop  offset="1" style="stop-color:#893976"/>
				</linearGradient>
				<path style="fill:url(#SVGID_00000095319031127911458000000016194639338221004991_);" d="M954.117,3213.37h-20.221
					c7.622-12.357,0.943-47.332,0.943-47.332l21.748,1.725c0,0-1.035,10.006-3.107,24.842
					C952.773,3197.685,953.227,3205.413,954.117,3213.37z"/>
				
					<linearGradient id="SVGID_00000093135594274167503180000012655935459796276654_" gradientUnits="userSpaceOnUse" x1="-2448.7512" y1="3259.2205" x2="-2699.5171" y2="2246.7568" gradientTransform="matrix(1 0 0 1 3378.4875 0)">
					<stop  offset="0" style="stop-color:#444B8C"/>
					<stop  offset="0.9964" style="stop-color:#26264F"/>
				</linearGradient>
				<path style="fill:url(#SVGID_00000093135594274167503180000012655935459796276654_);" d="M1006.523,2448.684
					c9.367,30.934,22.745,80.86,31.355,143.499c24.563,178.666-27.643,184.366-17.893,382.351
					c3.111,63.197-54.75,208.925-59.85,212.143c-2.469,0.238-5.147,0.399-8.002,0.313c-5.033-0.151-12.128-0.923-20.381-3.397
					c-9.165-1.579-42.213-91.088-34.552-144.306c9.228-64.117-2.109-108.647,0.706-158.936
					c6.737-120.392,0.417-247.568-7.977-248.043c-5.312-0.301-14.103,49.981-23.339,102.817
					c-10.605,60.663-12.317,88.389-34.794,114.837c-15.18,17.862-33.33,27.491-45.945,32.764
					c-153.179,64.03-131.857,64.485-165.263,92.094c-5.533,4.573-20.523,17.441-31.066,12.774
					c-7.067-3.129-9.146-12.813-10.025-17.183c-6.989-34.75,14.522-107.186,71.369-134.362c20.364-9.735,26.049-4.588,45.711-16.725
					c24.427-15.077,41.872-39.682,49.375-62.499c13.206-40.161-7.532-65.233-18.912-118.55
					c-2.184-10.232,1.112-101.66,10.972-162.031C750.896,2397.348,1006.523,2448.684,1006.523,2448.684z"/>
				
					<linearGradient id="SVGID_00000029746792804077449350000005627490536778370745_" gradientUnits="userSpaceOnUse" x1="4675.8154" y1="3185.2556" x2="4714.271" y2="3219.4622" gradientTransform="matrix(-1 0 0 1 5654.2349 0)">
					<stop  offset="0" style="stop-color:#AA80F9"/>
					<stop  offset="0.9964" style="stop-color:#6165D7"/>
				</linearGradient>
				<path style="fill:url(#SVGID_00000029746792804077449350000005627490536778370745_);" d="M955.531,3210.68
					c0,0-24.646-2.125-26.558,2.975c-1.912,5.099-2.124,18.059,12.961,15.51C957.019,3226.615,957.443,3214.505,955.531,3210.68z"/>
				
					<linearGradient id="SVGID_00000089538496897174516800000011739937458202220422_" gradientUnits="userSpaceOnUse" x1="3145.0962" y1="2244.0925" x2="10018.9199" y2="1785.0909" gradientTransform="matrix(-1 0 0 1 5718.5132 0)">
					<stop  offset="0" style="stop-color:#AA80F9"/>
					<stop  offset="0.9964" style="stop-color:#6165D7"/>
				</linearGradient>
				<path style="fill:url(#SVGID_00000089538496897174516800000011739937458202220422_);" d="M1157.22,1918.808
					c-2.138,6.75-4.276,13.499-6.414,20.248c15.464,11.846,58.009,47.197,52.91,85.116c-7.371,54.807-109.52,79.659-174.218,79.528
					c-17.734-0.035-132.922-0.268-187.021-82.915c-47.524-72.6-18.089-163.241,6.189-238.003
					c18.771-57.805,44.697-101.259,63.424-128.6c-10.719-9.104-21.439-18.207-32.159-27.311
					c-38.87,23.544-111.419,75.427-158.27,168.592c-43.193,85.891-45.673,169.342-45.213,201.05
					c0.571,39.276,6.392,50.066,7.366,106.889c0.899,52.438-3.341,85.089-9.805,146.087
					c-22.713,214.336-17.151,252.724-0.517,290.876c14.016,32.146,26.09,59.838,55.449,76.477
					c58.719,33.278,107.88-22.253,235.86-12.029c44.508,3.556,60.29,12.007,78.562-0.796c10.747-7.531,30.507-28.127,24.084-161.711
					c-5.488-114.125-22.09-144.427,1.721-177.194c20.877-28.733,42.334-17.398,106.66-49.888
					c42.074-21.251,132.999-67.179,141.067-142.788c5.842-54.752-34.666-97.887-41.288-104.939
					C1229.171,1918.048,1167.2,1918.56,1157.22,1918.808z"/>
				<g>
					
						<linearGradient id="SVGID_00000044153797642922071920000017808799849915567241_" gradientUnits="userSpaceOnUse" x1="827.9808" y1="2309.7249" x2="949.5283" y2="1954.861">
						<stop  offset="0" style="stop-color:#311944"/>
						<stop  offset="1" style="stop-color:#893976"/>
					</linearGradient>
					<path style="fill:url(#SVGID_00000044153797642922071920000017808799849915567241_);" d="M919.761,2018.464
						c0.868-16.375-9.891-28.948-12.246-31.649c-9.863-11.306-12.044-12.663-15.873-14.147l-5.267-1.817
						c0,0-0.292-0.047-0.596-0.084c-3.207-0.391-13.397,1.57-15.348,2.469c-6.235,2.867-7.227,31.114,3.222,68.39
						c0.051,1.499,0.114,3.008,0.189,4.527c0.11,2.234,0.176,3.964,0.228,5.416c0.237,6.584-5.591,11.758-12.103,10.765
						c-33.429-5.099-28.806,2.957-27.669,5.536c2.672,6.058,33.626,23.136,70.895,32.312c46.249,10.782,75.333,9.492,71.417,2.431
						c-1.476-2.661-24.424-14.634-51.55-23.599c-6.093-2.013-10.965-6.753-12.944-12.857c-2.681-8.271-7.874-19.744-9.104-23.213
						C905.35,2040.977,919.123,2030.528,919.761,2018.464z"/>
					
						<linearGradient id="SVGID_00000146474507299294205830000006300732207245121415_" gradientUnits="userSpaceOnUse" x1="4815.6577" y1="1985.7793" x2="4891.0952" y2="1985.7793" gradientTransform="matrix(-1 0 0 1 5718.5132 0)">
						<stop  offset="0" style="stop-color:#444B8C"/>
						<stop  offset="0.9964" style="stop-color:#26264F"/>
					</linearGradient>
					<path style="fill:url(#SVGID_00000146474507299294205830000006300732207245121415_);" d="M897.547,1957.093
						c2.582,11.695-0.125,25.412-2.481,28.046c-0.304,0.34-1.983,2.409-3.196,5.573c-0.166,0.431-0.287,0.92-0.357,1.531
						c-0.908,7.939,12.745,13.98,11.225,17.784c-1.103,2.76-9.779,1.345-10.262,3.623c-0.456,2.143,7.06,4.686,6.57,7.241
						c-0.37,1.929-4.801,1.234-6.764,4.502c-0.979,1.628-0.364,2.607-0.8,7.011c-0.247,2.491-0.751,5.269-1.266,6.866
						c-2.5,7.768-13.377,12.84-16.194,10.588c-0.784-0.628-0.403-1.389-1.605-3.818c0,0-1.113-2.25-3.387-4.631
						c-3.248-3.401-9.59-4.931-16.284-7.79c-12.398-5.293-16.768-11.193-18.134-13.212c-0.487-0.719-0.813-1.271-1.048-1.668
						c-4.707-7.992-7.557-20.643-5.429-29.292c3.564-14.49,19.588-11.583,28.67-27.185c10.479-18-2.319-36.522,4.676-40.454
						C869.191,1917.476,892.773,1935.467,897.547,1957.093z"/>
					
						<linearGradient id="SVGID_00000023973978303021221580000004571482760792533658_" gradientUnits="userSpaceOnUse" x1="800.4017" y1="2300.2783" x2="921.9496" y2="1945.4137">
						<stop  offset="0" style="stop-color:#311944"/>
						<stop  offset="1" style="stop-color:#893976"/>
					</linearGradient>
					<path style="fill:url(#SVGID_00000023973978303021221580000004571482760792533658_);" d="M897.92,2008.222
						c-3.747-3.293-7.951,1.535-6.838,6.633c1.112,5.098,7.234,9.286,11.795,7.207
						C907.439,2019.984,902.963,2012.655,897.92,2008.222z"/>
				</g>
				
					<linearGradient id="SVGID_00000070821513012416781610000013926564663657200554_" gradientUnits="userSpaceOnUse" x1="-2295.0991" y1="5852.7168" x2="-2295.0991" y2="5619.2104" gradientTransform="matrix(0.7767 0.6299 -0.6299 0.7767 6029.1821 -87.2572)">
					<stop  offset="0" style="stop-color:#311944"/>
					<stop  offset="1" style="stop-color:#893976"/>
				</linearGradient>
				<path style="fill:url(#SVGID_00000070821513012416781610000013926564663657200554_);" d="M595.023,2982.323l-12.831,10.23
					l-8.656-9.382l11.796-11.453c2.325-2.258,5.974-2.422,8.491-0.379l1.242,1.008
					C598.241,2974.922,598.22,2979.774,595.023,2982.323z"/>
				
					<linearGradient id="SVGID_00000052803405115621518630000016631534090175463318_" gradientUnits="userSpaceOnUse" x1="-2276.5271" y1="5861.5454" x2="-2320.6082" y2="5716.1968" gradientTransform="matrix(0.7767 0.6299 -0.6299 0.7767 6029.1821 -87.2572)">
					<stop  offset="0" style="stop-color:#AA80F9"/>
					<stop  offset="0.9964" style="stop-color:#6165D7"/>
				</linearGradient>
				<path style="fill:url(#SVGID_00000052803405115621518630000016631534090175463318_);" d="M571.033,3000.366
					c-0.308-9.463-4.993-12.319-2.775-16.907c1.742-3.604,6.591-5.888,10.554-5.082c5.571,1.134,7.925,8.08,8.457,9.648
					c3.613,10.661-4.346,16.604,0.066,25.38c0.888,1.766,2.567,4.222,3.181,8.274c0.26,1.721,0.906,5.984-0.93,7.123
					c-2.124,1.316-6.479-2.22-10.619-5.584c-4.97-4.034-7.456-6.051-8.683-9.465C568.581,3009.02,571.272,3007.671,571.033,3000.366
					z"/>
				
					<linearGradient id="SVGID_00000095319904038228615650000014700187059959388320_" gradientUnits="userSpaceOnUse" x1="4401.0444" y1="2320.7124" x2="5014.7949" y2="2320.7124" gradientTransform="matrix(-1 0 0 1 5718.5132 0)">
					<stop  offset="0" style="stop-color:#AA80F9"/>
					<stop  offset="0.9964" style="stop-color:#6165D7"/>
				</linearGradient>
				<path style="opacity:0.3;fill:url(#SVGID_00000095319904038228615650000014700187059959388320_);" d="M836.154,2485.81
					c50.839-22.778,106.763,30.567,123.632,12.615c19.18-20.412-58.041-84.128-50.462-171.571
					c4.422-51.013,37.941-112.815,88.309-131.202c52.501-19.165,93.679,19.652,136.248-10.093
					c22.817-15.943,14.332-29.434,40.37-55.508c44.574-44.636,92.424-28.119,118.586-58.032c9.4-10.749,16.572-28.173,13.924-58.19
					c7.373,16.628,12.473,36.681,10.134,58.607c-8.068,75.608-98.993,121.536-141.067,142.787
					c-64.326,32.49-85.783,21.156-106.66,49.888c-23.809,32.768-7.208,63.07-1.721,177.195
					c6.423,133.583-13.337,154.179-24.084,161.71c-18.272,12.803-34.054,4.352-78.562,0.796
					c-127.98-10.224-177.142,45.307-235.86,12.029c-10.253-5.81-18.367-12.995-25.223-21.221
					c32.747-0.262,53.317-9.568,66.836-21.503C801.796,2546.535,797.497,2503.13,836.154,2485.81z"/>
			</g>
		</g>
		<g>
			
				<linearGradient id="SVGID_00000100340898544434195400000013288753116644916398_" gradientUnits="userSpaceOnUse" x1="799.3431" y1="710.7858" x2="503.6123" y2="805.6947">
				<stop  offset="0" style="stop-color:#FCB148"/>
				<stop  offset="0.0521" style="stop-color:#FDBA46"/>
				<stop  offset="0.1424" style="stop-color:#FFC244"/>
				<stop  offset="0.3183" style="stop-color:#FFC444"/>
				<stop  offset="0.4849" style="stop-color:#FDB946"/>
				<stop  offset="0.7754" style="stop-color:#F99C4D"/>
				<stop  offset="0.8658" style="stop-color:#F8924F"/>
				<stop  offset="1" style="stop-color:#F8924F"/>
			</linearGradient>
			<path style="fill:url(#SVGID_00000100340898544434195400000013288753116644916398_);" d="M1139.792,700.055
				c0,137.193-107.277,245.116-244.389,240.906c-142.693-4.382-262.702-127.618-262.702-275.093
				c0-147.474,120.009-254.529,262.702-239.671C1032.515,440.475,1139.792,562.862,1139.792,700.055z"/>
			
				<linearGradient id="SVGID_00000138565929564034000930000010625549694669767315_" gradientUnits="userSpaceOnUse" x1="1038.5721" y1="416.4154" x2="774.5619" y2="998.8714">
				<stop  offset="0" style="stop-color:#FFDB44"/>
				<stop  offset="1" style="stop-color:#FEEF06"/>
			</linearGradient>
			<path style="fill:url(#SVGID_00000138565929564034000930000010625549694669767315_);" d="M1176.843,688.226
				c0,137.193-107.277,245.116-244.389,240.905c-142.693-4.382-262.702-127.618-262.702-275.092
				c0-147.474,120.01-254.529,262.702-239.671C1069.566,428.645,1176.843,551.032,1176.843,688.226z"/>
			
				<linearGradient id="SVGID_00000063599714012670624940000000440634085581375142_" gradientUnits="userSpaceOnUse" x1="990.0074" y1="1031.4252" x2="939.066" y2="753.1344">
				<stop  offset="0" style="stop-color:#FCB148"/>
				<stop  offset="0.0521" style="stop-color:#FDBA46"/>
				<stop  offset="0.1424" style="stop-color:#FFC244"/>
				<stop  offset="0.3183" style="stop-color:#FFC444"/>
				<stop  offset="0.4849" style="stop-color:#FDB946"/>
				<stop  offset="0.7754" style="stop-color:#F99C4D"/>
				<stop  offset="0.8658" style="stop-color:#F8924F"/>
				<stop  offset="1" style="stop-color:#F8924F"/>
			</linearGradient>
			<path style="fill:url(#SVGID_00000063599714012670624940000000440634085581375142_);" d="M1166.081,687.5
				c0,131.152-102.644,234.148-233.627,229.907c-136.066-4.406-250.308-122.016-250.308-262.532s114.242-242.722,250.308-228.782
				C1063.437,439.513,1166.081,556.348,1166.081,687.5z"/>
			
				<linearGradient id="SVGID_00000092431117525912530660000013258480959256510369_" gradientUnits="userSpaceOnUse" x1="882.002" y1="580.9808" x2="1091.9381" y2="1026.635">
				<stop  offset="0" style="stop-color:#FCB148"/>
				<stop  offset="0.0521" style="stop-color:#FDBA46"/>
				<stop  offset="0.1424" style="stop-color:#FFC244"/>
				<stop  offset="0.3183" style="stop-color:#FFC444"/>
				<stop  offset="0.4849" style="stop-color:#FDB946"/>
				<stop  offset="0.7754" style="stop-color:#F99C4D"/>
				<stop  offset="0.8658" style="stop-color:#F8924F"/>
				<stop  offset="1" style="stop-color:#F8924F"/>
			</linearGradient>
			<path style="fill:url(#SVGID_00000092431117525912530660000013258480959256510369_);" d="M1158.373,686.981
				c0,126.825-99.321,226.302-225.919,222.051c-131.341-4.41-241.481-118.001-241.481-253.562s110.14-234.302,241.481-221.002
				C1059.052,447.287,1158.373,560.156,1158.373,686.981z"/>
			<g>
				
					<linearGradient id="SVGID_00000001628357220121342670000000023895171998267278_" gradientUnits="userSpaceOnUse" x1="873.638" y1="485.0818" x2="979.201" y2="880.7136">
					<stop  offset="0" style="stop-color:#FFDB44"/>
					<stop  offset="1" style="stop-color:#FEEF06"/>
				</linearGradient>
				<path style="fill:url(#SVGID_00000001628357220121342670000000023895171998267278_);" d="M931.157,477.613L931.157,477.613
					c6.737,0.641,12.19,6.705,12.19,13.547v23.35c13.471,1.504,26.96,3.846,40.47,7.021c9.961,2.341,19.854,5.128,29.681,8.358
					c5.888,1.936,9.9,7.881,9.3,14.013l-2.868,29.281c-0.761,7.769-8.44,12.331-15.67,9.107c-6.473-2.887-13.11-5.359-19.912-7.417
					c-11.869-3.591-24.386-5.933-37.558-7.019l-3.444-0.284v66.873c35.143,9.832,60.953,23.06,77.632,39.697
					c16.599,16.557,24.869,37.193,24.869,61.966c0,26.79-9.143,48.241-27.503,64.42c-18.458,16.265-44.335,25.412-77.799,27.393
					v25.772c0,6.845-5.456,12.176-12.199,11.908l-0.216-0.008c-6.756-0.269-12.243-6.055-12.243-12.923v-25.423l-5.431-0.245
					c-15.688-0.708-30.714-2.308-45.071-4.805c-10.632-1.85-21.015-4.237-31.146-7.163c-6.127-1.77-10.333-7.606-9.771-13.877
					l3.374-37.64c0.729-8.137,8.903-12.872,16.64-9.82c9.019,3.558,18.15,6.554,27.393,8.992
					c14.403,3.798,29.003,6.235,43.795,7.317l0.217-74.387c-33.734-8.347-58.99-20.711-75.583-37.087
					c-16.671-16.453-25.035-37.51-25.035-63.111c0-26.494,9.07-46.945,27.142-61.298c17.98-14.281,43.539-21.385,76.514-21.367
					v-23.872C918.925,482.016,924.407,476.971,931.157,477.613z M918.925,566.878c-10.426,0.759-18.556,3.622-24.374,8.593
					c-5.828,4.98-8.746,11.674-8.746,20.074c0,7.958,2.699,14.61,8.091,19.95c5.384,5.331,13.734,9.588,25.03,12.769V566.878z
					 M940.546,701.578v68.216c11.333,0.022,20.024-2.683,26.091-8.11c6.056-5.417,9.081-13.069,9.081-22.963
					c0-9.021-2.811-16.502-8.439-22.451C961.642,710.31,952.739,705.414,940.546,701.578z"/>
			</g>
			
				<linearGradient id="SVGID_00000084532023780512129960000002971903128872036244_" gradientUnits="userSpaceOnUse" x1="820.2395" y1="609.8214" x2="1029.7521" y2="1054.5764">
				<stop  offset="0" style="stop-color:#FCB148"/>
				<stop  offset="0.0521" style="stop-color:#FDBA46"/>
				<stop  offset="0.1424" style="stop-color:#FFC244"/>
				<stop  offset="0.3183" style="stop-color:#FFC444"/>
				<stop  offset="0.4849" style="stop-color:#FDB946"/>
				<stop  offset="0.7754" style="stop-color:#F99C4D"/>
				<stop  offset="0.8658" style="stop-color:#F8924F"/>
				<stop  offset="1" style="stop-color:#F8924F"/>
			</linearGradient>
			<path style="opacity:0.3;fill:url(#SVGID_00000084532023780512129960000002971903128872036244_);" d="M891.571,718.038
				c7.633-75.388,76.918-107.303,67.876-176.648c-5.573-42.74-37.968-78.76-74.105-106.884
				c-109.611,11.495-194.37,102.256-194.37,220.965c0,135.561,110.14,249.152,241.481,253.562
				c12.752,0.428,25.207-0.235,37.317-1.822C917.61,855.305,885.014,782.806,891.571,718.038z"/>
		</g>
		<g>
			
				<linearGradient id="SVGID_00000023280216433209715320000010743851444248640954_" gradientUnits="userSpaceOnUse" x1="553.1036" y1="1269.97" x2="307.3643" y2="1348.8351">
				<stop  offset="0" style="stop-color:#FCB148"/>
				<stop  offset="0.0521" style="stop-color:#FDBA46"/>
				<stop  offset="0.1424" style="stop-color:#FFC244"/>
				<stop  offset="0.3183" style="stop-color:#FFC444"/>
				<stop  offset="0.4849" style="stop-color:#FDB946"/>
				<stop  offset="0.7754" style="stop-color:#F99C4D"/>
				<stop  offset="0.8658" style="stop-color:#F8924F"/>
				<stop  offset="1" style="stop-color:#F8924F"/>
			</linearGradient>
			<path style="fill:url(#SVGID_00000023280216433209715320000010743851444248640954_);" d="M836.002,1261.053
				c0,114.002-89.142,203.681-203.076,200.182c-118.571-3.641-218.294-106.045-218.294-228.59
				c0-122.544,99.722-211.502,218.294-199.156C746.859,1045.353,836.002,1147.052,836.002,1261.053z"/>
			
				<linearGradient id="SVGID_00000151539246289929787880000015114585884543687357_" gradientUnits="userSpaceOnUse" x1="751.8925" y1="1025.3611" x2="532.5115" y2="1509.3564">
				<stop  offset="0" style="stop-color:#FFDB44"/>
				<stop  offset="1" style="stop-color:#FEEF06"/>
			</linearGradient>
			<path style="fill:url(#SVGID_00000151539246289929787880000015114585884543687357_);" d="M866.789,1251.224
				c0,114.001-89.143,203.681-203.076,200.182c-118.572-3.641-218.294-106.045-218.294-228.589
				c0-122.545,99.723-211.503,218.294-199.156C777.647,1035.523,866.789,1137.222,866.789,1251.224z"/>
			
				<linearGradient id="SVGID_00000012470523392830438620000016502319832538604712_" gradientUnits="userSpaceOnUse" x1="711.5372" y1="1536.4072" x2="669.2072" y2="1305.1598">
				<stop  offset="0" style="stop-color:#FCB148"/>
				<stop  offset="0.0521" style="stop-color:#FDBA46"/>
				<stop  offset="0.1424" style="stop-color:#FFC244"/>
				<stop  offset="0.3183" style="stop-color:#FFC444"/>
				<stop  offset="0.4849" style="stop-color:#FDB946"/>
				<stop  offset="0.7754" style="stop-color:#F99C4D"/>
				<stop  offset="0.8658" style="stop-color:#F8924F"/>
				<stop  offset="1" style="stop-color:#F8924F"/>
			</linearGradient>
			<path style="fill:url(#SVGID_00000012470523392830438620000016502319832538604712_);" d="M857.846,1250.62
				c0,108.982-85.293,194.567-194.133,191.042c-113.065-3.661-207.995-101.39-207.995-218.153
				c0-116.763,94.93-201.692,207.995-190.108C772.554,1044.554,857.846,1141.639,857.846,1250.62z"/>
			
				<linearGradient id="SVGID_00000042717643219491046460000011759669183626597530_" gradientUnits="userSpaceOnUse" x1="621.7895" y1="1162.1077" x2="796.2372" y2="1532.4269">
				<stop  offset="0" style="stop-color:#FCB148"/>
				<stop  offset="0.0521" style="stop-color:#FDBA46"/>
				<stop  offset="0.1424" style="stop-color:#FFC244"/>
				<stop  offset="0.3183" style="stop-color:#FFC444"/>
				<stop  offset="0.4849" style="stop-color:#FDB946"/>
				<stop  offset="0.7754" style="stop-color:#F99C4D"/>
				<stop  offset="0.8658" style="stop-color:#F8924F"/>
				<stop  offset="1" style="stop-color:#F8924F"/>
			</linearGradient>
			<path style="fill:url(#SVGID_00000042717643219491046460000011759669183626597530_);" d="M851.442,1250.189
				c0,105.386-82.531,188.047-187.729,184.515c-109.139-3.664-200.66-98.054-200.66-210.699
				c0-112.645,91.521-194.694,200.66-183.643C768.91,1051.014,851.442,1144.803,851.442,1250.189z"/>
			<g>
				
					<linearGradient id="SVGID_00000121982118699063241570000017019717030435257490_" gradientUnits="userSpaceOnUse" x1="614.8394" y1="1082.4199" x2="702.5576" y2="1411.1725">
					<stop  offset="0" style="stop-color:#FFDB44"/>
					<stop  offset="1" style="stop-color:#FEEF06"/>
				</linearGradient>
				<path style="fill:url(#SVGID_00000121982118699063241570000017019717030435257490_);" d="M662.636,1076.214L662.636,1076.214
					c5.598,0.532,10.129,5.572,10.129,11.257v19.403c11.193,1.25,22.403,3.196,33.628,5.834c8.277,1.945,16.498,4.261,24.664,6.946
					c4.893,1.609,8.227,6.549,7.728,11.644l-2.383,24.331c-0.632,6.455-7.013,10.246-13.021,7.568
					c-5.379-2.399-10.894-4.453-16.546-6.164c-9.863-2.984-20.264-4.93-31.209-5.832l-2.862-0.236v55.568
					c29.202,8.17,50.649,19.161,64.509,32.986c13.793,13.758,20.665,30.906,20.665,51.491c0,22.261-7.598,40.087-22.854,53.53
					c-15.337,13.515-36.841,21.117-64.648,22.762v21.416c0,5.688-4.534,10.118-10.137,9.895l-0.18-0.007
					c-5.614-0.223-10.173-5.031-10.173-10.739v-21.126l-4.513-0.204c-13.036-0.588-25.522-1.918-37.452-3.993
					c-8.835-1.537-17.463-3.521-25.881-5.953c-5.091-1.471-8.586-6.321-8.119-11.531l2.804-31.277
					c0.606-6.762,7.398-10.696,13.827-8.16c7.494,2.956,15.082,5.446,22.762,7.472c11.969,3.156,24.1,5.181,36.392,6.08l0.18-61.813
					c-28.031-6.936-49.018-17.21-62.806-30.817c-13.853-13.672-20.803-31.169-20.803-52.443c0-22.016,7.537-39.009,22.553-50.936
					c14.94-11.866,36.179-17.77,63.58-17.755v-19.837C652.471,1079.872,657.026,1075.681,662.636,1076.214z M652.471,1150.389
					c-8.663,0.63-15.419,3.009-20.254,7.141c-4.843,4.138-7.268,9.7-7.268,16.68c0,6.613,2.243,12.14,6.723,16.577
					c4.474,4.43,11.412,7.967,20.799,10.61V1150.389z M670.437,1262.318v56.684c9.418,0.019,16.639-2.23,21.68-6.739
					c5.033-4.502,7.546-10.86,7.546-19.081c0-7.496-2.336-13.712-7.012-18.656C687.967,1269.575,680.569,1265.506,670.437,1262.318z
					"/>
			</g>
			
				<linearGradient id="SVGID_00000061454605080809628890000016541524855594992831_" gradientUnits="userSpaceOnUse" x1="570.4676" y1="1186.073" x2="744.5632" y2="1555.6449">
				<stop  offset="0" style="stop-color:#FCB148"/>
				<stop  offset="0.0521" style="stop-color:#FDBA46"/>
				<stop  offset="0.1424" style="stop-color:#FFC244"/>
				<stop  offset="0.3183" style="stop-color:#FFC444"/>
				<stop  offset="0.4849" style="stop-color:#FDB946"/>
				<stop  offset="0.7754" style="stop-color:#F99C4D"/>
				<stop  offset="0.8658" style="stop-color:#F8924F"/>
				<stop  offset="1" style="stop-color:#F8924F"/>
			</linearGradient>
			<path style="opacity:0.3;fill:url(#SVGID_00000061454605080809628890000016541524855594992831_);" d="M629.741,1275.996
				c6.343-62.645,63.915-89.164,56.402-146.787c-4.631-35.515-31.55-65.446-61.578-88.816
				c-91.082,9.552-161.513,84.97-161.513,183.612c0,112.646,91.522,207.035,200.66,210.699c10.596,0.356,20.946-0.195,31.009-1.514
				C651.378,1390.059,624.292,1329.815,629.741,1275.996z"/>
		</g>
		<g>
			
				<linearGradient id="SVGID_00000000204975789895010510000005534506187993689477_" gradientUnits="userSpaceOnUse" x1="418.8952" y1="627.7134" x2="767.1866" y2="627.7134" gradientTransform="matrix(0.9552 -0.2958 0.2958 0.9552 1365.7959 409.9056)">
				<stop  offset="0" style="stop-color:#FF9085"/>
				<stop  offset="1" style="stop-color:#FB6FBB"/>
			</linearGradient>
			<path style="fill:url(#SVGID_00000000204975789895010510000005534506187993689477_);" d="M1975.63,963.179l40.932,28.901
				c0,0,0.96-89.847,101.086-117.656c100.127-27.809,168.566-64.995,150.905-142.679l-104.671-38.501
				c0,0-17.094,102.394-87.448,120.385C1957.893,843.942,1975.63,963.179,1975.63,963.179z"/>
			
				<linearGradient id="SVGID_00000046307132203656335790000004684566818470358403_" gradientUnits="userSpaceOnUse" x1="2124.1892" y1="915.0223" x2="2513.8689" y2="915.0223">
				<stop  offset="0" style="stop-color:#AA80F9"/>
				<stop  offset="0.9964" style="stop-color:#6165D7"/>
			</linearGradient>
			<path style="fill:url(#SVGID_00000046307132203656335790000004684566818470358403_);" d="M2124.753,1032.133
				c-2.423-45.326,1.708-102.037,37.504-126.75c35.096-24.229,74.044,0.656,130.703-11.693
				c37.084-8.082,86.179-33.08,135.692-109.184c28.406,57.299,56.81,114.599,85.216,171.898
				c-87.679,64.594-144.25,67.806-180.936,56.033c-43.749-14.04-65.544-51.424-101.264-45.286
				c-33.183,5.702-54.508,44.861-67.584,78.386C2150.975,1041.069,2137.864,1036.602,2124.753,1032.133z"/>
			
				<linearGradient id="SVGID_00000078019388137085483370000001007830917839599799_" gradientUnits="userSpaceOnUse" x1="-750.0607" y1="-215.5137" x2="-933.2922" y2="239.7883" gradientTransform="matrix(0.7825 -0.6226 0.6226 0.7825 3145.1846 321.4355)">
				<stop  offset="0.0036" style="stop-color:#E38DDD"/>
				<stop  offset="1" style="stop-color:#9571F6"/>
			</linearGradient>
			<path style="fill:url(#SVGID_00000078019388137085483370000001007830917839599799_);" d="M2353.883,785.561
				c-11.342-25.051-21.489-57.97-6.723-79.796c14.478-21.399,41.938-15.923,71.201-35.362
				c19.154-12.722,41.364-37.636,52.564-91.487c28.642,26.091,57.284,52.183,85.926,78.274
				c-35.276,55.753-66.5,70.015-89.797,71.443c-27.783,1.703-48.312-14.602-67.123-3.277
				c-17.475,10.521-20.894,37.316-20.898,59.117C2370.65,784.835,2362.267,785.198,2353.883,785.561z"/>
			
				<linearGradient id="SVGID_00000018917866329284979010000015092463578868403113_" gradientUnits="userSpaceOnUse" x1="1303.3776" y1="567.9068" x2="872.6685" y2="1638.1525" gradientTransform="matrix(0.9552 -0.2958 0.2958 0.9552 1365.7959 409.9056)">
				<stop  offset="0" style="stop-color:#FF9085"/>
				<stop  offset="1" style="stop-color:#FB6FBB"/>
			</linearGradient>
			<path style="fill:url(#SVGID_00000018917866329284979010000015092463578868403113_);" d="M2521.365,875.445
				c-21.024-28.502,13.346-96.553,54.813-138.281c76.454-76.935,154.183-41.391,224.01-107.835
				c19.25-18.317,40.117-46.495,53.406-91.815c7.072-24.117,38.193-30.677,54.641-11.674
				c34.782,40.185,69.565,80.371,104.347,120.556c-18.773,115.642-58.725,155.621-92.156,170.556
				c-72.308,32.302-143.549-39.396-245.626-9.735c-55.46,16.115-93.31,54.388-116.211,83.328
				C2545.11,889.895,2529.635,886.658,2521.365,875.445z"/>
			
				<linearGradient id="SVGID_00000083076141340512582060000002534208653198774697_" gradientUnits="userSpaceOnUse" x1="328.5938" y1="324.8911" x2="238.365" y2="549.0958" gradientTransform="matrix(0.9172 -0.3983 0.3983 0.9172 1908.6003 428.2446)">
				<stop  offset="0" style="stop-color:#AA80F9"/>
				<stop  offset="0.9964" style="stop-color:#6165D7"/>
			</linearGradient>
			<path style="fill:url(#SVGID_00000083076141340512582060000002534208653198774697_);" d="M2319.833,595.531
				c22.084-15.496,57.759-18.93,67.985-3.465c9.298,14.063-4.754,40.259-19.879,54.235c-22.895,21.156-63.217,28.146-74.74,12.913
				C2282.444,644.994,2296.932,611.601,2319.833,595.531z"/>
			
				<linearGradient id="SVGID_00000102539977284520667600000011245367597012988599_" gradientUnits="userSpaceOnUse" x1="5737.3027" y1="-486.6304" x2="5647.082" y2="-262.4452" gradientTransform="matrix(0.7987 0.6018 -0.6018 0.7987 -2077.2795 -2148.8835)">
				<stop  offset="0" style="stop-color:#AA80F9"/>
				<stop  offset="0.9964" style="stop-color:#6165D7"/>
			</linearGradient>
			<path style="fill:url(#SVGID_00000102539977284520667600000011245367597012988599_);" d="M2788.166,898.223
				c24.368,11.577,44.94,40.925,36.523,57.446c-7.653,15.022-37.372,15.707-56.988,9.435c-29.692-9.493-55.649-41.132-48.073-58.666
				C2726.7,890.07,2762.896,886.217,2788.166,898.223z"/>
			<path style="fill:#FFFFFF;" d="M1835.196,957.363c-0.191-32.345,19.996-70.172,41.392-70.029
				c19.455,0.129,35.077,31.619,38.399,56.018c5.029,36.932-14.838,81.763-36.866,83.067
				C1857.558,1027.636,1835.393,990.905,1835.196,957.363z"/>
			
				<linearGradient id="SVGID_00000117649852763366493100000018168458324127219891_" gradientUnits="userSpaceOnUse" x1="1.0046" y1="291.8716" x2="-89.2244" y2="516.0767" gradientTransform="matrix(0.9172 -0.3983 0.3983 0.9172 1908.6003 428.2446)">
				<stop  offset="0.0036" style="stop-color:#E38DDD"/>
				<stop  offset="1" style="stop-color:#9571F6"/>
			</linearGradient>
			<path style="fill:url(#SVGID_00000117649852763366493100000018168458324127219891_);" d="M2006.217,695.725
				c22.084-15.496,57.759-18.93,67.985-3.465c9.298,14.063-4.753,40.259-19.879,54.235c-22.895,21.156-63.218,28.146-74.74,12.913
				C1968.827,745.187,1983.315,711.794,2006.217,695.725z"/>
		</g>
	</g>
</g>
</svg>
